<svg version="1.1" xmlns="http://www.w3.org/2000/svg" xmlns:xlink="http://www.w3.org/1999/xlink" width="16" height="16" viewBox="0,0,16,16"><desc>D1R DBV editor icon prototype version 3 by KaaBEL</desc><g data-paper-data="{&quot;isPaintingLayer&quot;:true}" fill-rule="nonzero" fill="none" stroke="none" stroke-width="1" stroke-linecap="butt" stroke-linejoin="miter" stroke-miterlimit="10" stroke-dasharray="" stroke-dashoffset="0" style="mix-blend-mode: normal"><defs><filter id="in" filterUnits="objectBoundingBox" x="0%" y="0%" width="100%" height="100%"><feImage xlink:href="#block" result="lay1"/><feImage xlink:href="#cockpit" result="lay2"/><feComposite operator="in" in="lay1" in2="lay2"/></filter></defs><path d="M0.5,0.5v15h15v-15z" stroke="#000000"/><path d="M11.75,7.375L0.5,9.25v2.5L8,15.5l7.5,-3.75v-2.5z" fill="#6E7069"/><path d="M10.5,11.75L13,10.5l-2.5,-8.75L8,0.5L0,4.25v5l5.5,2.5z" fill="#030e2f"/><path d="M5,5v6h6v-6z" fill="rgb(255, 102, 102)"/><path d="M5.5,5.5v5h5v-5z" stroke="#470000"/><g filter="url(#in)"><g id="block"><path d="M0,0v16h16v-16z" fill="#ffffff"/><path d="M0.5,0.5v15h15v-15z" stroke="#cccccc"/><path d="M5,5v6h6v-6z" fill="#ff3333"/><path d="M5.5,5.5v5h5v-5z" stroke="#cc2929"/></g><g id="cockpit" stroke-width="1.3" stroke-linecap="round" stroke-linejoin="round"><path d="M8,14v-1l-7.5,-3.75v2.5l7.5,3.75l7.5,-3.75v-2.5l-6.25,3.125M15.5,9.25l-1.5789,-0.7894" stroke="#6E7069"/><path d="M4.3333,4.8333L10.5,1.75L8,0.5L0.5,4.25L3,5.5l6.25,5.1666M10.5,1.75l2.0689,7.2413M0.5,5.9v1.8" stroke="#030e2f"/></g></g></g></svg>
