<svg version="1.1" xmlns="http://www.w3.org/2000/svg" xmlns:xlink="http://www.w3.org/1999/xlink" width="16" height="16" viewBox="0 0"><g fill="none" fill-rule="nonzero" stroke-width="1.3" stroke-linecap="round" stroke-linejoin="round" stroke-miterlimit="10" stroke-dasharray="" stroke-dashoffset="0" style="mix-blend-mode: normal" ><title>DBVE monochrome icon</title><desc>v.0.2.7 created by KaaBEL</desc><path d="M5.5,5.5v5h5v-5z" stroke-width="1" stroke-linejoin="miter" stroke="#470000" fill="none"/><path d="M8,14v-1l-7.5,-3.75v2.5l7.5,3.75l7.5,-3.75v-2.5l-6.25,3.125M15.5,9.25l-1.5789,-0.7894" stroke="#ffffff"/><path d="M4.3333,4.8333L10.5,1.75L8,0.5L0.5,4.25L3,5.5l6.25,5.1666M10.5,1.75l2.0689,7.2413M0.5,5.9v1.8" stroke="#ffffff" fill="none"/><path d="M4.5,6.74l4.75,3.926" stroke="#cc2929" fill="none"/><path d="M6,6v4h4v-4z" fill="#ff3333"/><path d="M5,6.307l-1.2097,-1v1.69l1.2097,1" stroke="none" fill="#ffffff" /><path d="M0.5,0.5v15h15v-15z" fill="none" stroke="#cccccc" stroke-width="1" /><!-- https://iconly.io/tools/svg-convert-stroke-to-fill used to obtain paths: --><!--path d="M4.974 2.738 L 1.961 4.246 2.667 4.603 L 3.373 4.959 4.180 5.629 L 4.987 6.299 4.987 7.138 C 4.987 7.944,4.985 7.975,4.938 7.942 C 4.911 7.922,4.391 7.494,3.781 6.990 L 2.673 6.074 1.405 5.430 C 0.707 5.076,0.106 4.760,0.068 4.727 L 0.000 4.667 0.000 5.068 L 0.000 5.469 0.093 5.398 C 0.274 5.261,0.487 5.221,0.704 5.286 C 0.853 5.331,1.079 5.553,1.117 5.693 C 1.157 5.839,1.157 7.761,1.117 7.907 C 1.079 8.047,0.853 8.269,0.704 8.314 C 0.487 8.379,0.274 8.339,0.093 8.202 L 0.000 8.131" stroke="none" fill="#273527" /><path d='M 0.000 8.1310.000 8.481 L 0.000 8.832 0.091 8.752 C 0.214 8.644,0.346 8.605,0.548 8.618 C 0.710 8.629,0.820 8.680,2.851 9.693 L 4.984 10.757 4.992 10.878 L 5.000 11.000 5.267 11.014 L 5.533 11.027 6.977 11.752 C 8.561 12.548,8.547 12.539,8.630 12.821 C 8.663 12.935,8.669 13.079,8.662 13.568 C 8.654 14.128,8.649 14.181,8.596 14.280 C 8.466 14.520,8.258 14.650,8.000 14.650 C 7.806 14.650,7.694 14.605,7.551 14.470 C 7.379 14.308,7.350 14.217,7.338 13.785 L 7.328 13.397 4.251 11.859 L 1.173 10.320 1.173 10.833 L 1.173 11.347 4.587 13.053 L 8.000 14.760 11.427 13.047 L 14.853 11.333 14.853 10.827 C 14.853 10.548,14.847 10.320,14.840 10.320 C 14.833 10.320,13.617 10.925,12.138 11.664 C 10.279 12.594,9.410 13.015,9.325 13.027 C 9.067 13.066,8.776 12.904,8.653 12.652 C 8.541 12.422,8.604 12.086,8.793 11.906 C 8.834 11.867,9.227 11.654,9.667 11.432 L 10.467 11.027 10.733 11.014 L 11.000 11.000 11.008 10.879 L 11.016 10.758 12.508 10.013 C 13.329 9.603,14.000 9.261,14.000 9.254 C 14.000 9.246,13.886 9.182,13.747 9.112 C 13.468 8.970,13.367 8.868,13.297 8.659 C 13.244 8.505,13.244 8.476,13.289 8.303 L 13.324 8.167 13.155 8.084 C 13.063 8.038,12.987 8.013,12.987 8.028 C 12.987 8.043,13.042 8.249,13.110 8.486 C 13.251 8.979,13.255 9.115,13.133 9.322 C 12.880 9.754,12.215 9.738,12.001 9.295 C 11.970 9.231,11.739 8.466,11.487 7.596 L 11.030 6.013 11.015 5.507 L 11.000 5.000 10.874 4.992 C 10.749 4.984,10.748 4.983,10.711 4.859 C 10.690 4.790,10.544 4.277,10.386 3.720 C 10.227 3.163,10.095 2.703,10.092 2.698 C 10.089 2.694,9.062 3.204,7.810 3.832 L 5.533 4.973 5.267 4.986 L 5.000 5.000 4.992 5.123 L 4.984 5.247 4.752 5.354 C 4.451 5.493,4.335 5.511,4.144 5.451 C 3.668 5.302,3.530 4.705,3.892 4.360 C 3.943 4.312,4.984 3.776,6.508 3.013 L 9.040 1.746" stroke="none" fill="#273527" /><path d="M 9.040 1.746 8.520 1.486 C 8.234 1.344,7.997 1.227,7.993 1.228 C 7.990 1.229,6.631 1.908,4.974 2.738" stroke="none" fill="#45d445" /--><path d="M10.000 8.000 L 10.000 10.000 9.736 10.000 L 9.473 10.000 7.737 8.567 L 6.001 7.133 6.001 6.567 L 6.000 6.000 8.000 6.000 L 10.000 6.000 10.000 8.000 M6.707 9.415 C 7.081 9.724,7.387 9.982,7.387 9.988 C 7.387 9.995,7.075 10.000,6.693 10.000 L 6.000 10.000 6.000 9.427 C 6.000 9.111,6.006 8.853,6.014 8.853 C 6.022 8.853,6.334 9.106,6.707 9.415" stroke="none" fill="rgb(255, 102, 102)" /><path d="M9.761 11.066 C 9.723 11.136,9.580 11.239,9.469 11.276 C 9.230 11.356,8.979 11.296,8.760 11.106 L 8.653 11.014 9.221 11.014 C 9.776 11.013,9.788 11.014,9.761 11.066" stroke="none" fill="#ffffff" /><path d="M0.000 1.908 C 0.000 3.427,0.007 3.813,0.033 3.798 C 0.052 3.787,0.088 3.760,0.114 3.738 C 0.140 3.715,0.350 3.600,0.581 3.482 L 1.000 3.267 1.007 2.140 L 1.014 1.013 3.266 1.013 L 5.518 1.013 6.525 0.508 L 7.533 0.003 3.767 0.002 L 0.000 0.000 0.000 1.908M9.475 0.508 L 10.482 1.013 12.735 1.013 L 14.987 1.013 14.987 4.640 L 14.987 8.266 15.409 8.478 C 15.641 8.594,15.869 8.721,15.915 8.760 L 16.000 8.831 16.000 4.416 L 16.000 0.000 12.233 0.002 L 8.467 0.003 9.475 0.508M0.000 14.089 L 0.000 16.000 3.767 15.999 L 7.533 15.997 6.560 15.507 L 5.587 15.016 3.300 15.015 L 1.014 15.013 1.007 13.873 L 1.000 12.733 0.551 12.502 C 0.304 12.375,0.079 12.250,0.051 12.225 C 0.001 12.179,0.000 12.206,0.000 14.089M15.944 12.227 C 15.922 12.250,15.700 12.373,15.452 12.501 L 15.000 12.733 14.993 13.873 L 14.986 15.013 12.700 15.015 L 10.413 15.016 9.440 15.507 L 8.467 15.997 12.233 15.999 L 16.000 16.000 16.000 14.093 C 16.000 13.045,15.997 12.187,15.992 12.187 C 15.988 12.187,15.966 12.205,15.944 12.227 " stroke="none" fill="black" /></g></svg>